<?xml version="1.0" standalone="no"?>
<!DOCTYPE svg PUBLIC "-//W3C//DTD SVG 20010904//EN"
 "http://www.w3.org/TR/2001/REC-SVG-20010904/DTD/svg10.dtd">
<svg version="1.0" xmlns="http://www.w3.org/2000/svg"
 width="939.000000pt" height="939.000000pt" viewBox="0 0 939.000000 939.000000"
 preserveAspectRatio="xMidYMid meet">
<metadata>
Created by potrace 1.16, written by Peter Selinger 2001-2019
</metadata>
<g transform="translate(0.000000,939.000000) scale(0.100000,-0.100000)"
fill="#000000" stroke="none">
<path d="M3995 9380 c-52 -4 -91 -12 -93 -19 -2 -7 -30 -11 -72 -11 -48 0 -73
-5 -84 -15 -9 -10 -34 -15 -70 -15 -43 0 -56 -3 -56 -15 0 -11 -12 -15 -45
-16 -62 -2 -65 -3 -73 -16 -4 -6 -29 -13 -56 -15 -28 -3 -52 -10 -54 -16 -2
-7 -7 -10 -12 -7 -4 3 -27 -2 -50 -10 -23 -8 -54 -15 -67 -15 -13 0 -31 -7
-39 -15 -13 -13 -57 -21 -67 -12 -2 1 -11 -6 -21 -15 -10 -10 -26 -18 -36 -18
-28 0 -51 -11 -44 -21 3 -5 -9 -10 -25 -10 -44 -2 -48 -3 -58 -13 -5 -5 -2 -6
7 -1 10 5 12 5 5 -3 -5 -6 -23 -12 -40 -14 -16 -2 -40 -9 -51 -16 -12 -6 -25
-8 -29 -4 -3 4 -6 3 -5 -3 5 -22 -1 -27 -15 -15 -12 10 -15 9 -15 -5 0 -11 -5
-15 -15 -11 -8 3 -15 1 -15 -5 0 -10 -49 -34 -64 -30 -5 1 -16 -5 -26 -14 -9
-8 -19 -13 -22 -10 -3 3 -26 -5 -52 -18 -25 -13 -44 -26 -40 -29 3 -4 -2 -5
-13 -3 -10 1 -25 -3 -33 -10 -8 -7 -24 -15 -35 -17 -11 -1 -25 -10 -32 -18 -6
-8 -16 -16 -22 -16 -6 -1 -16 -2 -23 -3 -6 0 -8 -4 -5 -8 4 -3 -3 -11 -16 -18
-15 -8 -24 -8 -29 -1 -5 7 -8 4 -8 -6 0 -10 -7 -18 -15 -18 -8 0 -15 -4 -15
-8 0 -10 -79 -46 -98 -45 -8 1 -11 -5 -8 -13 4 -10 -3 -14 -24 -14 -19 0 -33
-7 -40 -20 -6 -11 -15 -18 -21 -15 -5 4 -9 -1 -9 -9 0 -14 -19 -21 -44 -17 -5
1 -6 -5 -3 -14 4 -10 0 -15 -12 -15 -10 0 -24 -7 -31 -15 -7 -8 -16 -12 -21
-9 -5 3 -9 0 -9 -7 0 -7 -3 -9 -6 -6 -4 3 -15 -5 -26 -18 -11 -14 -28 -25 -38
-25 -10 0 -22 -5 -26 -12 -5 -7 -3 -8 6 -3 9 5 11 4 6 -3 -4 -7 -14 -12 -22
-12 -8 0 -17 -7 -20 -15 -4 -8 -13 -15 -20 -15 -8 0 -17 -7 -20 -15 -4 -8 -10
-13 -14 -10 -5 3 -15 -2 -23 -10 -9 -8 -20 -15 -26 -15 -6 0 -11 -7 -11 -15 0
-8 -7 -15 -15 -15 -8 0 -15 -7 -15 -15 0 -8 -9 -15 -20 -15 -11 0 -23 -7 -26
-15 -4 -8 -10 -15 -16 -15 -5 0 -19 -11 -32 -25 -13 -14 -28 -25 -35 -25 -6 0
-11 -7 -11 -15 0 -8 -7 -15 -15 -15 -8 0 -15 -7 -15 -15 0 -8 -7 -15 -15 -15
-8 0 -15 -5 -15 -10 0 -6 -11 -15 -25 -20 -14 -5 -25 -14 -25 -20 0 -5 -4 -10
-10 -10 -13 0 -270 -256 -270 -270 0 -5 -7 -10 -15 -10 -8 0 -15 -7 -15 -15 0
-8 -5 -15 -10 -15 -6 0 -15 -11 -20 -25 -5 -14 -14 -25 -20 -25 -5 0 -10 -7
-10 -15 0 -8 -7 -15 -15 -15 -8 0 -15 -7 -15 -15 0 -8 -7 -15 -15 -15 -8 0
-15 -5 -15 -11 0 -7 -11 -22 -25 -35 -14 -13 -25 -27 -25 -32 0 -6 -7 -12 -15
-16 -8 -3 -15 -15 -15 -26 0 -11 -7 -20 -15 -20 -8 0 -15 -7 -15 -15 0 -8 -7
-15 -15 -15 -8 0 -15 -7 -15 -15 0 -8 -4 -15 -10 -15 -5 0 -12 -11 -16 -25 -3
-14 -10 -25 -15 -25 -5 0 -9 -7 -9 -15 0 -8 -7 -15 -15 -15 -8 0 -15 -6 -15
-14 0 -8 -7 -16 -15 -20 -8 -3 -15 -12 -15 -20 0 -9 -14 -29 -30 -46 -17 -17
-30 -40 -30 -50 0 -11 -4 -20 -10 -20 -5 0 -10 -7 -10 -15 0 -8 -7 -15 -15
-15 -9 0 -15 -9 -15 -25 0 -16 -6 -25 -15 -25 -8 0 -15 -6 -15 -14 0 -8 -7
-16 -15 -20 -8 -3 -15 -17 -15 -31 0 -16 -6 -25 -15 -25 -9 0 -15 -9 -15 -25
0 -14 -4 -25 -10 -25 -5 0 -10 -6 -10 -14 0 -8 -7 -16 -15 -20 -8 -3 -15 -17
-15 -31 0 -16 -6 -25 -15 -25 -9 0 -15 -9 -15 -24 0 -13 -7 -26 -15 -30 -8 -3
-15 -17 -15 -31 0 -16 -6 -25 -15 -25 -10 0 -15 -10 -15 -29 0 -16 -6 -31 -15
-35 -8 -3 -15 -15 -15 -26 0 -11 -4 -20 -10 -20 -5 0 -10 -13 -10 -30 0 -20
-5 -30 -15 -30 -9 0 -15 -9 -15 -25 0 -14 -7 -28 -15 -31 -8 -4 -15 -16 -15
-29 0 -13 -7 -25 -15 -29 -8 -3 -15 -17 -15 -31 0 -14 -4 -25 -10 -25 -5 0
-13 -18 -16 -40 -4 -22 -10 -40 -15 -40 -5 0 -9 -13 -9 -29 0 -16 -6 -31 -15
-35 -9 -3 -15 -18 -15 -40 0 -21 -6 -36 -15 -40 -10 -3 -15 -19 -15 -46 0 -29
-4 -40 -15 -40 -11 0 -15 -11 -15 -39 0 -25 -5 -41 -15 -45 -10 -3 -15 -19
-15 -46 0 -22 -4 -40 -10 -40 -5 0 -10 -10 -10 -22 0 -13 -7 -36 -15 -52 -8
-15 -15 -48 -15 -71 0 -29 -5 -45 -15 -49 -11 -4 -15 -21 -15 -61 0 -42 -3
-55 -15 -55 -12 0 -15 -13 -15 -59 0 -40 -5 -63 -15 -71 -11 -9 -15 -32 -15
-80 0 -41 -4 -70 -11 -72 -22 -7 -30 -274 -27 -903 3 -585 5 -643 21 -674 10
-21 17 -57 17 -91 0 -39 5 -62 15 -70 10 -8 15 -31 15 -72 0 -43 4 -60 15 -64
11 -5 15 -21 15 -60 0 -41 4 -54 15 -54 12 0 15 -13 15 -55 0 -30 4 -55 9 -55
6 0 13 -20 17 -45 3 -25 10 -45 15 -45 5 0 9 -16 9 -35 0 -22 6 -38 15 -41 10
-4 15 -20 15 -45 0 -26 5 -42 15 -45 10 -4 15 -20 15 -45 0 -28 4 -39 15 -39
11 0 15 -11 15 -40 0 -29 4 -40 15 -40 10 0 15 -10 15 -30 0 -16 5 -30 10 -30
6 0 10 -13 10 -29 0 -16 7 -36 15 -45 8 -8 15 -24 15 -36 0 -11 7 -23 15 -26
9 -4 15 -19 15 -35 0 -19 5 -29 15 -29 9 0 15 -9 15 -25 0 -14 7 -28 15 -31 8
-4 15 -17 15 -30 0 -13 5 -24 10 -24 6 0 10 -11 10 -25 0 -14 7 -28 15 -31 8
-4 15 -17 15 -30 0 -15 6 -24 15 -24 10 0 15 -10 15 -30 0 -20 5 -30 15 -30 9
0 15 -9 15 -25 0 -14 7 -28 15 -31 8 -4 15 -15 15 -26 0 -10 11 -29 25 -42 14
-13 25 -33 25 -45 0 -12 7 -24 15 -27 8 -4 15 -15 15 -25 0 -11 7 -22 15 -25
8 -4 15 -12 15 -20 0 -8 7 -14 15 -14 9 0 15 -9 15 -25 0 -14 7 -28 15 -31 8
-4 15 -12 15 -20 0 -8 4 -14 9 -14 5 0 12 -11 15 -25 4 -14 11 -25 16 -25 6 0
10 -7 10 -15 0 -8 7 -15 15 -15 8 0 15 -9 15 -20 0 -11 7 -23 15 -26 8 -4 15
-12 15 -20 0 -8 7 -14 15 -14 8 0 15 -7 15 -15 0 -8 4 -15 9 -15 5 0 12 -12
16 -27 3 -15 23 -43 43 -63 41 -40 60 -66 68 -92 4 -10 13 -18 20 -18 8 0 14
-5 14 -11 0 -14 55 -69 69 -69 6 0 11 -6 11 -13 0 -7 14 -27 30 -45 16 -18 30
-35 30 -38 0 -2 18 -22 40 -44 22 -22 40 -45 40 -50 0 -6 7 -10 15 -10 8 0 15
-7 15 -15 0 -8 7 -15 15 -15 8 0 15 -7 15 -15 0 -8 5 -15 10 -15 13 0 70 -57
70 -70 0 -6 4 -10 9 -10 6 0 30 -20 54 -44 24 -23 58 -49 76 -57 17 -8 31 -20
31 -26 0 -7 7 -13 15 -13 8 0 15 -7 15 -15 0 -8 7 -15 15 -15 8 0 15 -7 15
-15 0 -8 5 -15 10 -15 6 0 21 -11 33 -24 12 -13 32 -26 45 -30 12 -4 22 -12
22 -17 0 -5 7 -9 15 -9 8 0 15 -7 15 -15 0 -8 7 -15 15 -15 8 0 15 -7 15 -15
0 -8 9 -15 20 -15 11 0 23 -7 26 -15 4 -8 11 -15 16 -15 6 0 21 -11 34 -25 13
-14 32 -25 44 -25 11 0 20 -7 20 -15 0 -8 6 -15 14 -15 8 0 16 -7 20 -15 3 -8
15 -15 26 -15 11 0 23 -7 26 -15 4 -8 12 -15 20 -15 8 0 14 -4 14 -10 0 -5 11
-12 25 -16 14 -3 25 -10 25 -15 0 -5 6 -9 14 -9 8 0 16 -7 20 -15 3 -8 17 -15
31 -15 16 0 25 -6 25 -15 0 -8 9 -15 20 -15 11 0 23 -7 26 -15 4 -8 12 -15 20
-15 8 0 14 -4 14 -9 0 -5 14 -12 30 -16 17 -4 30 -10 30 -15 0 -4 11 -11 25
-14 14 -4 25 -11 25 -16 0 -6 11 -10 24 -10 13 0 26 -7 30 -15 3 -8 14 -15 24
-15 11 0 25 -7 32 -15 7 -8 20 -15 30 -15 10 0 23 -7 30 -15 7 -8 20 -15 30
-15 10 0 23 -7 30 -15 7 -8 21 -15 31 -15 10 0 21 -5 24 -10 3 -6 17 -10 31
-10 15 0 24 -6 24 -15 0 -10 10 -15 29 -15 16 0 31 -6 35 -15 3 -9 18 -15 34
-15 16 0 35 -7 42 -15 7 -8 23 -15 36 -15 13 0 24 -4 24 -10 0 -5 18 -13 40
-16 22 -4 40 -10 40 -15 0 -5 15 -9 34 -9 18 0 39 -7 46 -15 7 -8 28 -15 47
-15 21 0 36 -6 39 -15 4 -9 19 -15 39 -15 18 0 38 -7 45 -15 7 -9 29 -15 50
-15 21 0 40 -5 42 -11 2 -6 26 -13 53 -16 28 -3 55 -9 60 -14 6 -4 34 -11 63
-15 28 -3 52 -10 52 -15 0 -5 24 -9 54 -9 35 0 58 -5 66 -15 9 -11 32 -15 83
-15 55 0 73 -4 83 -18 12 -16 61 -17 787 -17 724 0 776 1 794 18 15 12 37 17
86 17 45 0 70 5 81 15 9 9 33 15 65 15 27 0 52 4 56 9 3 5 30 13 60 16 30 4
55 11 55 16 0 5 20 9 44 9 26 0 51 6 60 15 8 8 30 15 49 15 19 0 40 7 47 15 7
8 27 15 45 15 18 0 38 7 45 15 7 8 27 15 45 15 20 0 35 6 39 15 3 9 19 15 41
15 19 0 35 5 35 10 0 6 13 10 29 10 16 0 36 7 45 15 8 8 26 15 39 15 14 0 27
7 31 15 3 9 18 15 36 15 18 0 33 6 36 15 4 9 19 15 35 15 19 0 29 5 29 15 0
10 10 15 30 15 17 0 30 5 30 10 0 6 8 10 18 10 10 0 27 7 38 15 10 8 26 15 35
15 9 0 19 7 23 15 3 8 16 15 30 15 13 0 26 7 30 15 3 8 14 15 24 15 11 0 25 7
32 15 7 8 21 15 31 15 11 0 19 4 19 8 0 5 25 19 55 32 30 13 55 27 55 32 0 4
6 8 14 8 8 0 16 7 20 15 3 8 15 15 26 15 11 0 23 7 26 15 4 8 17 15 30 15 15
0 24 6 24 15 0 8 7 15 15 15 8 0 15 5 15 10 0 6 8 10 19 10 10 0 34 13 52 30
19 16 42 30 52 30 9 0 17 7 17 15 0 8 7 15 15 15 8 0 15 7 15 15 0 9 9 15 21
15 12 0 32 11 45 25 13 14 27 25 32 25 6 0 12 7 16 15 3 8 15 15 26 15 11 0
23 7 26 15 4 8 12 15 20 15 8 0 14 7 14 15 0 8 6 15 14 15 8 0 16 7 20 15 3 8
11 15 19 15 15 0 137 112 137 126 0 5 14 15 31 23 17 7 44 26 60 42 16 16 34
29 39 29 6 0 10 7 10 15 0 8 7 15 15 15 8 0 15 7 15 15 0 8 5 15 10 15 13 0
130 117 130 130 0 6 7 10 15 10 8 0 15 7 15 15 0 8 7 15 15 15 8 0 15 4 15 10
0 5 13 23 29 39 16 16 35 43 42 60 8 17 18 31 23 31 14 0 126 122 126 137 0 8
7 16 15 19 8 4 15 12 15 20 0 8 7 14 15 14 8 0 15 6 15 14 0 8 7 16 15 20 8 3
15 17 15 31 0 16 6 25 15 25 8 0 15 5 15 10 0 6 11 21 25 34 14 13 25 33 25
45 0 12 6 21 15 21 8 0 15 7 15 15 0 8 7 15 15 15 8 0 15 9 15 20 0 10 14 33
30 50 17 17 30 40 30 50 0 11 5 20 10 20 6 0 10 7 10 15 0 8 7 15 15 15 9 0
15 9 15 24 0 13 7 26 15 30 8 3 15 17 15 31 0 16 6 25 15 25 8 0 15 7 15 15 0
8 4 15 8 15 5 0 19 25 32 55 13 30 27 55 32 55 4 0 8 14 8 30 0 20 5 30 15 30
9 0 15 9 15 25 0 16 6 25 15 25 10 0 15 10 15 30 0 20 5 30 15 30 9 0 15 9 15
24 0 13 7 29 15 36 8 7 15 21 15 31 0 11 5 19 10 19 6 0 10 14 10 30 0 20 5
30 15 30 10 0 15 10 15 29 0 16 6 31 15 35 9 3 15 19 15 41 0 24 4 35 15 35 9
0 15 10 15 26 0 14 7 32 15 40 8 9 15 29 15 45 0 16 5 29 10 29 6 0 10 18 10
40 0 29 4 40 15 40 11 0 15 12 15 45 0 33 4 45 15 45 11 0 15 11 15 39 0 25 5
41 15 45 9 3 15 19 15 41 0 20 7 43 15 51 9 9 15 34 15 60 0 24 4 44 9 44 5 0
12 25 16 55 3 30 11 57 16 60 5 4 9 33 9 66 0 44 4 61 15 65 11 5 15 23 15 72
0 48 5 70 18 85 16 18 17 70 17 794 0 726 -1 775 -17 787 -14 10 -18 28 -18
78 0 46 -4 69 -15 78 -10 8 -15 31 -15 71 0 33 -4 59 -9 59 -5 0 -12 27 -16
60 -4 33 -10 60 -15 60 -4 0 -10 23 -12 52 -3 29 -11 54 -17 56 -6 2 -11 21
-11 43 0 28 -4 39 -15 39 -11 0 -15 12 -15 45 0 33 -4 45 -15 45 -11 0 -15 11
-15 40 0 29 -4 40 -15 40 -11 0 -15 12 -15 45 0 25 -4 45 -9 45 -5 0 -11 18
-15 40 -3 22 -11 40 -16 40 -6 0 -10 11 -10 25 0 14 -7 28 -15 31 -9 4 -15 19
-15 40 0 22 -6 37 -15 40 -9 4 -15 19 -15 35 0 19 -5 29 -15 29 -9 0 -15 9
-15 24 0 14 -4 28 -10 31 -5 3 -10 15 -10 26 0 11 -7 22 -15 25 -8 4 -15 17
-15 30 0 14 -7 27 -15 30 -8 4 -15 17 -15 30 0 15 -6 24 -15 24 -10 0 -15 10
-15 30 0 20 -5 30 -15 30 -10 0 -15 10 -15 30 0 17 -4 30 -10 30 -5 0 -12 11
-16 25 -3 14 -10 25 -14 25 -5 0 -11 14 -15 30 -4 17 -11 30 -16 30 -5 0 -9 7
-9 15 0 8 -7 15 -15 15 -9 0 -15 9 -15 25 0 16 -6 25 -15 25 -9 0 -15 9 -15
25 0 14 -7 28 -15 31 -8 4 -15 12 -15 20 0 8 -4 14 -9 14 -5 0 -12 11 -15 25
-4 14 -11 25 -16 25 -6 0 -10 7 -10 15 0 8 -7 15 -15 15 -9 0 -15 9 -15 25 0
14 -7 28 -15 31 -8 4 -15 12 -15 20 0 8 -7 14 -15 14 -9 0 -15 9 -15 21 0 12
-11 32 -25 45 -14 13 -25 28 -25 34 0 5 -7 10 -15 10 -9 0 -15 9 -15 25 0 16
-6 25 -15 25 -8 0 -15 7 -15 15 0 8 -7 15 -15 15 -8 0 -15 7 -15 15 0 8 -4 15
-9 15 -5 0 -13 10 -17 23 -4 12 -17 32 -30 44 -13 12 -24 27 -24 33 0 5 -7 10
-15 10 -8 0 -15 7 -15 15 0 8 -7 15 -15 15 -8 0 -15 7 -15 15 0 8 -6 15 -13
15 -6 0 -18 12 -24 28 -7 15 -33 49 -58 75 -25 27 -45 53 -45 58 0 5 -4 9 -10
9 -13 0 -70 57 -70 70 0 5 -7 10 -15 10 -8 0 -15 7 -15 15 0 8 -7 15 -15 15
-8 0 -15 7 -15 15 0 8 -4 15 -10 15 -5 0 -34 24 -64 53 -57 56 -81 74 -108 83
-10 4 -18 11 -18 16 0 13 -56 68 -69 68 -6 0 -11 6 -11 14 0 7 -8 16 -17 20
-26 8 -52 27 -92 66 -20 20 -55 44 -78 55 -24 11 -43 26 -43 33 0 6 -7 12 -15
12 -8 0 -15 7 -15 15 0 9 -9 15 -25 15 -16 0 -25 6 -25 15 0 8 -7 15 -15 15
-8 0 -15 4 -15 10 0 5 -11 12 -25 16 -14 3 -25 10 -25 15 0 5 -6 9 -14 9 -8 0
-16 7 -20 15 -3 8 -17 15 -31 15 -16 0 -25 6 -25 15 0 8 -6 15 -14 15 -8 0
-16 7 -20 15 -3 8 -14 15 -25 15 -10 0 -21 7 -25 15 -3 8 -14 15 -24 15 -11 0
-31 11 -46 25 -15 14 -35 25 -45 25 -11 0 -21 7 -25 15 -3 8 -17 15 -31 15
-16 0 -25 6 -25 15 0 8 -9 15 -19 15 -11 0 -26 7 -35 15 -8 8 -21 15 -29 15
-8 0 -20 7 -27 15 -7 8 -21 15 -31 15 -10 0 -21 5 -24 10 -3 6 -14 10 -24 10
-10 0 -24 7 -31 15 -7 8 -23 15 -36 15 -15 0 -24 6 -24 15 0 10 -10 15 -29 15
-16 0 -31 6 -35 15 -3 8 -15 15 -26 15 -12 0 -28 7 -36 15 -9 8 -26 15 -39 15
-13 0 -27 5 -30 10 -3 6 -19 10 -36 10 -19 0 -29 5 -29 15 0 11 -11 15 -40 15
-29 0 -40 4 -40 15 0 10 -10 15 -34 15 -18 0 -39 7 -46 15 -7 8 -28 15 -47 15
-21 0 -36 6 -39 15 -4 9 -19 15 -39 15 -19 0 -36 4 -39 9 -3 5 -26 12 -51 15
-25 4 -45 11 -45 17 0 5 -25 9 -55 9 -42 0 -55 3 -55 15 0 11 -13 15 -54 15
-39 0 -55 4 -60 15 -4 11 -21 15 -58 15 -31 1 -61 7 -72 15 -13 10 -43 15 -87
15 -39 0 -69 5 -71 11 -2 6 -48 14 -103 19 -117 11 -1258 10 -1390 0z m1543
-2672 c18 -18 14 -47 -13 -106 -13 -28 -29 -73 -34 -100 -17 -83 -51 -164 -89
-211 -20 -25 -38 -48 -39 -50 -2 -2 -14 1 -28 7 -38 17 -33 65 19 185 25 56
54 132 66 169 30 94 83 141 118 106z m-2390 -2401 c4 -30 34 -41 117 -41 47
-1 50 -3 50 -26 0 -18 -6 -26 -22 -28 -26 -4 -27 -5 -14 -30 5 -9 12 -25 15
-34 7 -23 71 -25 80 -3 10 26 45 18 52 -12 10 -49 13 -53 39 -63 32 -12 30
-44 -3 -48 -13 -2 -26 -10 -29 -18 -3 -9 -20 -14 -44 -14 -45 0 -47 -5 -17
-37 28 -30 38 -29 71 8 27 31 47 31 47 0 0 -9 4 -21 9 -27 5 -5 12 -30 15 -57
6 -38 4 -48 -8 -53 -9 -3 -16 -17 -16 -30 0 -34 47 -35 52 -1 3 19 9 22 51 23
40 2 55 8 81 33 25 24 41 31 72 31 47 0 87 31 66 52 -17 17 -15 45 3 52 20 7
19 40 -1 61 -9 9 -14 19 -10 22 3 4 12 1 18 -5 7 -7 22 -12 35 -12 28 0 32 36
6 56 -16 12 -15 13 13 14 19 0 38 -8 49 -20 10 -11 29 -20 42 -20 36 0 28 16
-25 49 -10 6 -11 17 -5 42 11 41 35 49 50 16 6 -13 28 -33 49 -44 20 -10 44
-29 51 -40 13 -19 12 -23 -12 -45 -27 -26 -22 -41 17 -49 16 -4 17 -6 3 -33
-16 -30 -18 -84 -5 -126 7 -24 7 -23 15 13 8 41 27 48 61 19 19 -16 44 -62 44
-82 0 -6 -9 -10 -19 -10 -22 0 -51 -35 -51 -61 0 -13 40 -61 40 -48 0 2 6 21
14 43 l13 39 7 -55 c4 -30 4 -67 0 -81 -4 -20 -2 -28 10 -33 14 -5 24 -54 11
-54 -13 0 -45 42 -45 60 0 11 -4 20 -10 20 -5 0 -10 -16 -10 -35 0 -27 8 -45
34 -70 18 -19 40 -35 50 -35 26 0 19 -99 -9 -110 -11 -4 -28 -17 -38 -28 -17
-19 -17 -20 10 -26 15 -3 38 -19 51 -35 20 -27 21 -33 10 -80 l-11 -51 -102 0
c-79 0 -105 -3 -115 -15 -14 -17 -155 -22 -165 -5 -3 6 -15 10 -25 10 -30 0
-35 22 -9 42 16 14 32 18 51 14 15 -3 40 -9 56 -12 22 -4 33 1 60 29 39 41 39
67 -1 78 -38 10 -57 27 -57 52 0 32 -29 57 -66 57 -18 0 -36 -5 -39 -10 -4 -6
-16 -10 -28 -8 -36 3 -106 -13 -118 -28 -6 -8 -30 -14 -53 -14 -37 0 -43 3
-53 30 -10 27 -16 30 -54 30 -43 0 -89 -29 -89 -56 0 -13 -54 -44 -77 -44 -7
0 -13 9 -13 20 0 11 -4 20 -10 20 -5 0 -10 -13 -10 -30 0 -21 -8 -35 -26 -47
-32 -20 -58 -8 -59 28 0 29 -35 38 -55 14 -7 -8 -21 -15 -32 -15 -16 0 -19 5
-14 24 4 16 0 29 -14 41 -25 23 -26 45 -1 45 11 0 28 11 39 25 11 13 32 29 48
36 63 25 134 62 134 69 0 4 -9 10 -20 13 -11 3 -23 13 -26 24 -11 29 -46 63
-66 63 -10 0 -21 6 -24 14 -7 18 24 86 43 93 19 7 16 54 -6 106 -14 33 -28 48
-57 61 -22 9 -55 25 -74 34 -31 15 -40 16 -74 5 -49 -17 -76 -9 -76 22 0 17 9
27 31 37 21 9 38 29 55 64 13 28 24 58 24 66 0 8 11 27 24 41 21 22 22 28 10
38 -10 8 -13 22 -9 41 7 32 -9 60 -30 52 -7 -3 -16 -1 -20 5 -3 7 2 11 14 11
11 0 23 5 26 11 11 17 30 4 33 -24z m2654 -69 c28 -40 32 -123 7 -141 -9 -7
-20 -25 -26 -41 -5 -17 -14 -31 -20 -33 -10 -4 -23 41 -23 81 0 12 -9 39 -19
60 -42 81 29 146 81 74z m-1302 -1234 c35 -18 38 -34 10 -52 -28 -17 -25 -29
8 -35 33 -6 52 7 45 33 -7 27 9 25 44 -3 15 -13 46 -27 67 -30 22 -4 43 -13
48 -21 5 -8 16 -12 28 -9 14 4 20 0 20 -11 0 -11 -9 -16 -32 -16 -17 0 -40 -7
-50 -17 -17 -15 -17 -17 -2 -35 16 -17 16 -18 -5 -18 -13 0 -34 9 -47 19 l-24
19 35 22 c27 17 33 25 25 35 -16 19 -131 11 -146 -10 -10 -14 -12 -14 -17 2
-3 10 -12 29 -21 43 -8 14 -17 33 -20 44 -6 18 -36 19 -76 3 -8 -4 -23 0 -33
7 -15 12 -17 18 -7 36 11 20 17 21 66 15 29 -3 67 -13 84 -21z"/>
<path d="M3830 3882 c0 -10 -18 -36 -40 -57 -22 -21 -40 -42 -40 -45 0 -7 57
-70 64 -70 3 0 6 8 6 18 0 29 21 42 67 42 50 0 65 20 39 49 -9 10 -16 32 -16
49 0 31 -2 32 -40 32 -32 0 -40 -4 -40 -18z"/>
<path d="M3646 3661 c-37 -37 -49 -55 -50 -82 -1 -32 -4 -34 -39 -37 -53 -5
-42 -26 15 -30 26 -2 52 -10 58 -18 9 -10 36 -14 101 -14 48 0 91 -4 94 -10 3
-5 10 -10 16 -10 12 0 12 47 -1 55 -5 3 -10 37 -10 74 0 92 -21 121 -88 121
-42 -1 -52 -6 -96 -49z"/>
</g>
</svg>
